<?xml version="1.0" encoding="utf-8"?>
<!-- Generator: Adobe Illustrator 23.0.1, SVG Export Plug-In . SVG Version: 6.00 Build 0)  -->
<svg version="1.1"
	 id="svg64" inkscape:version="0.92.2 2405546, 2018-03-11" sodipodi:docname="Javascript-shield.svg" xmlns:cc="http://creativecommons.org/ns#" xmlns:dc="http://purl.org/dc/elements/1.1/" xmlns:inkscape="http://www.inkscape.org/namespaces/inkscape" xmlns:rdf="http://www.w3.org/1999/02/22-rdf-syntax-ns#" xmlns:sodipodi="http://sodipodi.sourceforge.net/DTD/sodipodi-0.dtd" xmlns:svg="http://www.w3.org/2000/svg"
	 xmlns="http://www.w3.org/2000/svg" xmlns:xlink="http://www.w3.org/1999/xlink" x="0px" y="0px" viewBox="0 0 335 471.7"
	 style="enable-background:new 0 0 335 471.7;" xml:space="preserve">
<style type="text/css">
	.st0{fill:#FFFFFF;}
	.st1{fill:#EAEBEC;}
	.st2{fill:#F0BE25;}
	.st3{fill:#E4A126;}
	.st4{fill:#0E0E0F;}
</style>
<sodipodi:namedview  bordercolor="#666666" borderopacity="1" fit-margin-bottom="0" fit-margin-left="0" fit-margin-right="0" fit-margin-top="0" gridtolerance="10" guidetolerance="10" id="namedview66" inkscape:current-layer="svg64" inkscape:cx="364.99449" inkscape:cy="300.83113" inkscape:pageopacity="0" inkscape:pageshadow="2" inkscape:window-height="1016" inkscape:window-maximized="1" inkscape:window-width="1920" inkscape:window-x="0" inkscape:window-y="27" inkscape:zoom="1.0628712" objecttolerance="10" pagecolor="#ffffff" showgrid="false">
	</sodipodi:namedview>
<g>
	<path id="path118" inkscape:connector-curvature="0" class="st0" d="M1.2,92.3l0.1,4.2c0,2.3,6.7,79.1,14.9,170.6l14.9,166.4
		l66.8,18.7c36.8,10.3,67.6,18.8,68.5,18.8c0.9,0.1,32.2-8.3,69.4-18.6c59.8-16.5,67.8-19,68.2-21.1c0.6-2.9,29.9-333,29.8-336.5
		v-2.5H167.6L1.2,92.3L1.2,92.3z"/>
	
		<path id="path88" inkscape:connector-curvature="0" sodipodi:nodetypes="sccsssccsscsccccccccsscscssscsscccsccsscccc" class="st1" d="
		M98.4,453.3l-67.5-18.9l-0.9-5C29.2,425,0,98.3,0,93.9c0-1.6,17.1-1.7,167.5-1.7c158.8,0,167.5,0.1,167.5,2
		c-0.1,8.1-30.3,339.1-31.1,339.7c-0.9,0.8-131.5,37.2-135.9,37.8C166.9,472,135.5,463.7,98.4,453.3L98.4,453.3z M210.1,386.7
		c22.7-6.3,41.5-11.7,41.9-12.1s3.1-27.3,5.9-59.7c2.8-32.5,5.5-61.2,5.8-63.8l0.6-4.8h-49h-49v20.8v20.8h26.6h26.4l-0.5,2.5
		c-0.3,1.4-1.4,13.3-2.5,26.6c-1.1,14-2.5,24.6-3.3,25.3c-0.7,0.7-11.5,4-23.9,7.3l-22.6,6v21.2c0,14.5,0.4,21.2,1.2,21.2
		C168.3,398,187.4,392.9,210.1,386.7L210.1,386.7z M263.7,220.1c-0.7-5.5-7.4-79.4-7.4-82.2c0-1.7-3.9-1.9-44.4-1.9h-44.3v21.7v21.7
		l20,0.8c11,0.4,22.5,1.1,25.7,1.4l5.7,0.7l1.4,17c0.8,9.4,1.7,18.9,2,21.2l0.6,4.2h20.7h20.7L263.7,220.1z"/>
	
		<path id="path80" inkscape:connector-curvature="0" sodipodi:nodetypes="ccsccccccscccccscscsccsssccscscssccccsccscsscccccccc" class="st2" d="
		M97.9,452.2L31,433.5L16.1,267.1C7.9,175.6,1.2,98.8,1.2,96.5l-0.1-4.2h166.5h166.3v2.5c0,3.5-29.2,333.6-29.8,336.5
		c-0.4,2-8.5,4.5-68.2,21.1c-37.3,10.3-68.5,18.7-69.5,18.6C165.5,470.9,134.7,462.5,97.9,452.2L97.9,452.2z M210.1,387.5
		c23.1-6.4,42.3-12.2,42.7-12.9c0.4-0.6,3.2-28.9,6.1-62.8c3-33.9,5.7-62.5,5.9-63.6c0.5-1.9-3.4-2-71.3-2h-71.6l3.1-32.3
		c1.7-17.8,3.1-32.4,3.1-32.4c0-0.1,10.6-0.4,23.4-0.7c21-0.6,64.4,1.1,65.9,2.5c0.5,0.5,4.1,35.5,4.1,40.3c0,2.4,0.3,2.4,21.8,2.4
		h21.8l-0.5-4.8c-0.3-2.6-2.1-23-4.1-45.2l-3.6-40.5l-84-0.3c-66.8-0.2-84,0-84,1.1c0,0.8-0.5,5.7-1.1,11
		c-1.4,12.7-12.4,135.6-12.4,139v2.7h71.5h71.5l-0.6,4.2c-0.4,2.3-1.5,14.1-2.5,26.1c-1,12.1-2.2,22.2-2.6,22.6
		c-1,1-43.1,12.2-45.7,12.2c-1.2,0-12.1-2.7-24.1-6l-21.9-6l-0.8-9.4c-0.4-5.2-1.1-12.6-1.5-16.5l-0.7-7H96.7H75.4v4.2
		c0.1,7.9,5.2,61,5.9,61.7c0.9,0.9,82.6,23.8,85.1,23.9C167.4,399.1,187,393.9,210.1,387.5L210.1,387.5z"/>
	
		<path id="path78" inkscape:connector-curvature="0" sodipodi:nodetypes="ccsccccccscccscccccccscsscccscscsscccccscsssscscccccs" class="st3" d="
		M97.9,452.2L31,433.5L16.1,267.1C7.9,175.6,1.2,98.8,1.2,96.5l-0.1-4.2h166.5h166.3v2.5c0,3.5-29.2,333.6-29.8,336.5
		c-0.4,2-8.5,4.5-68.2,21.1c-37.3,10.3-68.5,18.7-69.5,18.6C165.5,470.9,134.7,462.5,97.9,452.2L97.9,452.2z M222.6,427.1
		c29.4-8.1,54-15.3,54.7-16c1.1-1.1,26.5-279.5,26.3-288.8v-3.1h-68h-68v7.9v7.9h-39.4c-30.7,0-39.3,0.3-39.3,1.4
		c0,0.8-0.5,5.7-1.1,11c-1.4,12.7-12.4,135.6-12.4,139v2.7h46.1h46.1v32.6c0,25.3-0.3,32.6-1.4,32.6c-0.8,0-11.3-2.7-23.3-6l-21.9-6
		l-0.8-9.4c-0.4-5.2-1.1-12.6-1.5-16.5l-0.7-7H96.7H75.4v4.2c0.1,12.1,5.4,61.3,6.6,62c0.7,0.5,20.3,6.1,43.5,12.5l42.1,11.7v21.1
		c0,11.6,0.3,21.1,0.8,21.1C168.8,441.9,193.2,435.3,222.6,427.1L222.6,427.1z M124.9,214.3c1.6-17.6,3.2-32.2,3.4-32.5
		c0.3-0.2,9.2-0.7,19.9-1l19.4-0.5v33v33h-22.9h-22.8L124.9,214.3z"/>
	<path id="path76" inkscape:connector-curvature="0" class="st4" d="M106.9,52.4V41.7h15.2h15.2V20.9V0.1h10.6h10.7v31.5V63h-25.9
		h-25.8V52.4z M168.7,54.6v-8.4h14.1c7.7,0,14.1-0.3,14.1-0.6c0-0.3-6.3-7.5-14.1-15.9l-14.1-15.3V7.2V0h29.2h29.2v8.4v8.4
		l-13.7,0.3l-13.7,0.3L214,32.8l14.3,15.4v7.5v7.4h-29.8h-29.8V54.6z"/>
</g>
</svg>
